<svg width="35" height="35" viewBox="0 0 35 35" fill="none" xmlns="http://www.w3.org/2000/svg">
<path d="M24.7917 7.29169C26.0021 7.29169 26.9792 6.3146 26.9792 5.10419C26.9792 3.64585 24.7917 1.16669 24.7917 1.16669C24.7917 1.16669 22.6042 3.64585 22.6042 5.10419C22.6042 6.3146 23.5813 7.29169 24.7917 7.29169ZM17.5 7.29169C18.7104 7.29169 19.6875 6.3146 19.6875 5.10419C19.6875 3.64585 17.5 1.16669 17.5 1.16669C17.5 1.16669 15.3125 3.64585 15.3125 5.10419C15.3125 6.3146 16.2896 7.29169 17.5 7.29169ZM10.2083 7.29169C11.4188 7.29169 12.3958 6.3146 12.3958 5.10419C12.3958 3.64585 10.2083 1.16669 10.2083 1.16669C10.2083 1.16669 8.02083 3.64585 8.02083 5.10419C8.02083 6.3146 8.99792 7.29169 10.2083 7.29169ZM27.5917 11.6813C27.3 10.8209 26.4833 10.2084 25.5208 10.2084H9.47917C8.51667 10.2084 7.71458 10.8209 7.40833 11.6813L4.375 20.4167V32.0834C4.375 32.8854 5.03125 33.5417 5.83333 33.5417H7.29167C8.09375 33.5417 8.75 32.8854 8.75 32.0834V30.625H26.25V32.0834C26.25 32.8854 26.9062 33.5417 27.7083 33.5417H29.1667C29.9688 33.5417 30.625 32.8854 30.625 32.0834V20.4167L27.5917 11.6813ZM9.47917 26.25C8.26875 26.25 7.29167 25.2729 7.29167 24.0625C7.29167 22.8521 8.26875 21.875 9.47917 21.875C10.6896 21.875 11.6667 22.8521 11.6667 24.0625C11.6667 25.2729 10.6896 26.25 9.47917 26.25ZM25.5208 26.25C24.3104 26.25 23.3333 25.2729 23.3333 24.0625C23.3333 22.8521 24.3104 21.875 25.5208 21.875C26.7313 21.875 27.7083 22.8521 27.7083 24.0625C27.7083 25.2729 26.7313 26.25 25.5208 26.25ZM7.29167 18.9584L9.47917 12.3959H25.5208L27.7083 18.9584H7.29167Z" fill="#162B46"/>
</svg>
