<svg width="22" height="31" viewBox="0 0 22 31" fill="none" xmlns="http://www.w3.org/2000/svg">
<path d="M8.94105 27.2147C9.49579 26.3989 9.85474 25.4526 9.85474 24.3757C9.85474 21.6673 7.63579 19.4484 4.92737 19.4484C2.21895 19.4484 0 21.6673 0 24.3757C0 27.0842 2.21895 29.3031 4.92737 29.3031C5.97158 29.3031 6.95052 28.9442 7.76631 28.3894L10.1484 30.7715C10.3116 30.9347 10.5074 30.9999 10.7358 30.9999C10.9642 30.9999 11.16 30.9347 11.3232 30.7715C11.6495 30.4452 11.6495 29.9231 11.3232 29.5968L8.94105 27.2147ZM1.66421 24.3757C1.66421 22.581 3.13263 21.1126 4.92737 21.1126C6.7221 21.1126 8.19053 22.581 8.19053 24.3757C8.19053 26.1705 6.7221 27.6389 4.92737 27.6389C3.13263 27.6389 1.66421 26.1705 1.66421 24.3757Z" fill="#162B46"/>
<path d="M16.3157 5.58001H21.4389C21.3084 5.2537 21.1126 4.96001 20.8515 4.69896L16.9357 0.783169C16.6747 0.522117 16.381 0.326327 16.0547 0.195801V5.31896C16.0873 5.44948 16.1852 5.58001 16.3157 5.58001Z" fill="#162B46"/>
<path d="M16.3158 6.95052C15.4348 6.95052 14.7169 6.23263 14.7169 5.35158V0H3.88318C3.29581 0 2.74107 0.228421 2.34949 0.62C1.92528 1.01158 1.72949 1.56632 1.72949 2.15368V18.4042C2.67581 17.8821 3.75265 17.621 4.92739 17.621C8.32107 17.621 11.16 20.101 11.6169 23.3968H19.4811C20.6884 23.3968 21.6348 22.4179 21.6348 21.2432V6.95052H16.3158ZM16.6748 13.7705H15.3369L13.9337 16.7726C13.8358 17.0011 13.5748 17.1642 13.3137 17.1642C13.0526 17.1642 12.7916 17.0011 12.6937 16.7726L10.0832 11.3232L9.10423 13.4116C9.00633 13.64 8.74528 13.8032 8.48423 13.8032H6.72212C6.33054 13.8032 6.03686 13.5095 6.03686 13.1179C6.03686 12.7589 6.33054 12.4326 6.72212 12.4326H8.06002L9.46318 9.43052C9.6916 8.94105 10.4748 8.94105 10.7032 9.43052L13.3137 14.88L14.2926 12.7916C14.3905 12.5305 14.6516 12.4 14.9126 12.4H16.6748C17.0663 12.4 17.36 12.7263 17.36 13.0853C17.36 13.4768 17.0663 13.7705 16.6748 13.7705Z" fill="#162B46"/>
</svg>
