<svg width="37" height="37" viewBox="0 0 37 37" fill="none" xmlns="http://www.w3.org/2000/svg">
<path opacity="0.6" d="M34.9444 8.22222H32.8889V2.05556C32.8889 1.51039 32.6723 0.98755 32.2868 0.602058C31.9013 0.216567 31.3785 0 30.8333 0C30.2882 0 29.7653 0.216567 29.3798 0.602058C28.9943 0.98755 28.7778 1.51039 28.7778 2.05556V8.22222C28.7778 9.31256 29.2109 10.3582 29.9819 11.1292C30.7529 11.9002 31.7986 12.3333 32.8889 12.3333V29.8056C32.8889 30.0781 32.7806 30.3396 32.5879 30.5323C32.3951 30.7251 32.1337 30.8333 31.8611 30.8333C31.5885 30.8333 31.3271 30.7251 31.1344 30.5323C30.9416 30.3396 30.8333 30.0781 30.8333 29.8056V22.6111C30.8333 20.9756 30.1836 19.4071 29.0272 18.2506C27.8707 17.0941 26.3022 16.4444 24.6667 16.4444V4.11111C24.6667 3.02078 24.2335 1.9751 23.4625 1.20412C22.6916 0.433134 21.6459 0 20.5556 0H4.11111C3.02078 0 1.9751 0.433134 1.20412 1.20412C0.433134 1.9751 0 3.02078 0 4.11111V32.8889C0 33.9792 0.433134 35.0249 1.20412 35.7959C1.9751 36.5669 3.02078 37 4.11111 37H20.5556C21.6459 37 22.6916 36.5669 23.4625 35.7959C24.2335 35.0249 24.6667 33.9792 24.6667 32.8889V20.5556C25.2118 20.5556 25.7347 20.7721 26.1202 21.1576C26.5057 21.5431 26.7222 22.0659 26.7222 22.6111V29.8056C26.7222 31.1685 27.2636 32.4756 28.2274 33.4393C29.1911 34.403 30.4982 34.9444 31.8611 34.9444C33.224 34.9444 34.5311 34.403 35.4949 33.4393C36.4586 32.4756 37 31.1685 37 29.8056V10.2778C37 9.73261 36.7834 9.20977 36.3979 8.82428C36.0125 8.43879 35.4896 8.22222 34.9444 8.22222ZM20.5556 14.3889C20.561 14.6534 20.5143 14.9165 20.4181 15.163C20.3218 15.4095 20.178 15.6346 19.9947 15.8255C19.8115 16.0164 19.5924 16.1693 19.3501 16.2755C19.1077 16.3817 18.8468 16.4391 18.5822 16.4444H6.24889C5.97354 16.4499 5.69981 16.401 5.44334 16.3007C5.18687 16.2003 4.95269 16.0504 4.75417 15.8595C4.55564 15.6686 4.39667 15.4405 4.28634 15.1882C4.176 14.9358 4.11646 14.6642 4.11111 14.3889V8.22222C4.11111 7.67705 4.32768 7.15422 4.71317 6.76873C5.09866 6.38323 5.6215 6.16667 6.16667 6.16667H18.5C19.0452 6.16667 19.568 6.38323 19.9535 6.76873C20.339 7.15422 20.5556 7.67705 20.5556 8.22222V14.3889Z" fill="#1B3556"/>
</svg>
