<svg width="24" height="24" viewBox="0 0 24 24" fill="none" xmlns="http://www.w3.org/2000/svg">
<path fill-rule="evenodd" clip-rule="evenodd" d="M0 20.45H23.9938V3H0V20.45ZM3.27188 17.1781H20.7219V6.27188H3.27188V17.1781Z" fill="#F14B35"/>
<path fill-rule="evenodd" clip-rule="evenodd" d="M3.27197 8.99998H6.0001V6.27185H3.27197V8.99998Z" fill="#F14B35"/>
<path fill-rule="evenodd" clip-rule="evenodd" d="M18 17.1781H20.7219V14.4562H18V17.1781Z" fill="#F14B35"/>
<path fill-rule="evenodd" clip-rule="evenodd" d="M11.997 13.3609C11.0951 13.3609 10.3611 12.6269 10.3611 11.725C10.3611 10.823 11.0951 10.0891 11.997 10.0891C12.899 10.0891 13.633 10.823 13.633 11.725C13.633 12.6269 12.899 13.3609 11.997 13.3609Z" fill="#F14B35"/>
<path fill-rule="evenodd" clip-rule="evenodd" d="M11.997 8.95312C10.466 8.95312 9.2251 10.194 9.2251 11.725C9.2251 13.256 10.466 14.4969 11.997 14.4969C13.528 14.4969 14.7688 13.256 14.7688 11.725C14.7688 10.194 13.528 8.95312 11.997 8.95312Z" fill="#F14B35"/>
</svg>
