<svg width="44" height="35" viewBox="0 0 44 35" fill="none" xmlns="http://www.w3.org/2000/svg">
<path d="M43.2988 10.9587L28.6 15.3125L25.1288 13.5871C24.5178 13.2835 23.8442 13.1253 23.1612 13.125H19.25V9.84375H23.1C23.7078 9.84375 24.2 9.3543 24.2 8.75V7.65625C24.2 7.05195 23.7078 6.5625 23.1 6.5625H12.1C11.4923 6.5625 11 7.05195 11 7.65625V8.75C11 9.3543 11.4923 9.84375 12.1 9.84375H15.95V13.125H12.1L2.59325 11.4064C2.46195 11.3823 2.32871 11.3702 2.19519 11.3702C1.00856 11.3702 0 12.3293 0 13.5584V20.0491C0 21.106 0.760375 22.0124 1.80675 22.2011L6.6 23.0686V26.25C6.6 27.4579 7.58519 28.4375 8.8 28.4375H27.6808C28.2686 28.4375 28.8324 28.2037 29.2456 27.7874L43.8384 13.1072C43.9416 13.0047 43.9993 12.8652 43.9993 12.7203V11.4844C44 11.1214 43.6501 10.8589 43.2988 10.9587ZM6.6 19.7333L3.3 19.1365V14.8688L6.6 15.4656V19.7333ZM37.7664 25.5206C37.7664 27.1312 39.0796 28.4375 40.7 28.4375C42.3204 28.4375 43.6336 27.1318 43.6336 25.5206C43.6336 23.9094 40.7 19.6875 40.7 19.6875C40.7 19.6875 37.7664 23.9101 37.7664 25.5206Z" fill="white"/>
</svg>
