<svg width="25" height="34" viewBox="0 0 25 34" fill="none" xmlns="http://www.w3.org/2000/svg">
<path fill-rule="evenodd" clip-rule="evenodd" d="M12.5 0C5.60417 0 0 5.71625 0 12.75V14.875C0 16.0438 0.9375 17 2.08333 17V27.625C2.08333 29.9625 6.75 31.875 12.5 31.875C18.25 31.875 22.9167 29.9625 22.9167 27.625V17C24.0625 17 25 16.0438 25 14.875V12.75C25 5.71625 19.3958 0 12.5 0ZM18.75 21.25V22.3125C18.75 22.9075 18.2917 23.375 17.7083 23.375C17.125 23.375 16.6667 22.9075 16.6667 22.3125V21.25C16.6667 20.655 16.2083 20.1875 15.625 20.1875C15.0417 20.1875 14.5833 20.655 14.5833 21.25V26.5625C14.5833 27.1575 14.125 27.625 13.5417 27.625C12.9583 27.625 12.5 27.1575 12.5 26.5625V22.3125C12.5 21.7175 12.0417 21.25 11.4583 21.25C10.875 21.25 10.4167 21.7175 10.4167 22.3125V23.375C10.4167 24.5438 9.47917 25.5 8.33333 25.5C7.1875 25.5 6.25 24.5438 6.25 23.375V21.25C5.10417 21.25 4.16667 20.2938 4.16667 19.125V15.3C6.0625 16.3412 9.08333 17 12.5 17C15.9167 17 18.9375 16.3412 20.8333 15.3V19.125C20.8333 20.2938 19.8958 21.25 18.75 21.25ZM12.5 14.875C9 14.875 6 14.0037 4.77083 12.75C6 11.4963 9 10.625 12.5 10.625C16 10.625 19 11.4963 20.2292 12.75C19 14.0037 16 14.875 12.5 14.875ZM12.5 8.5C6.75 8.5 2.08333 10.3912 2.08333 12.75C2.08333 6.885 6.75 2.125 12.5 2.125C18.25 2.125 22.9167 6.885 22.9167 12.75C22.9167 10.4125 18.25 8.5 12.5 8.5Z" fill="#162B46"/>
</svg>
