<svg width="34" height="34" viewBox="0 0 34 34" fill="none" xmlns="http://www.w3.org/2000/svg">
<path d="M24.7634 20.4227L23.9406 15.4813C23.8553 14.9549 23.5849 14.4761 23.1781 14.1313C22.7713 13.7864 22.2548 13.598 21.7215 13.6H12.2786C11.7458 13.599 11.23 13.7878 10.8238 14.1325C10.4176 14.4773 10.1474 14.9555 10.0618 15.4813L9.23672 20.4272C8.58239 20.4569 7.96452 20.7369 7.51095 21.2095C7.05739 21.682 6.80287 22.3109 6.80005 22.9659V29.4667H9.06672C9.06672 30.0678 9.30552 30.6443 9.73061 31.0694C10.1557 31.4945 10.7322 31.7333 11.3334 31.7333C11.9345 31.7333 12.5111 31.4945 12.9362 31.0694C13.3612 30.6443 13.6 30.0678 13.6 29.4667H20.4C20.4 30.0678 20.6389 30.6443 21.0639 31.0694C21.489 31.4945 22.0656 31.7333 22.6667 31.7333C23.2679 31.7333 23.8444 31.4945 24.2695 31.0694C24.6946 30.6443 24.9334 30.0678 24.9334 29.4667H27.2V22.9523C27.1982 22.2978 26.9438 21.6694 26.4898 21.1981C26.0358 20.7267 25.4173 20.4489 24.7634 20.4227ZM10.7667 27.2C10.3158 27.2 9.88345 27.0209 9.56463 26.7021C9.24582 26.3833 9.06672 25.9509 9.06672 25.5C9.06672 25.0491 9.24582 24.6167 9.56463 24.2979C9.88345 23.9791 10.3158 23.8 10.7667 23.8C11.2176 23.8 11.65 23.9791 11.9688 24.2979C12.2876 24.6167 12.4667 25.0491 12.4667 25.5C12.4667 25.9509 12.2876 26.3833 11.9688 26.7021C11.65 27.0209 11.2176 27.2 10.7667 27.2ZM11.5351 20.4L12.2786 15.8667L21.7034 15.8508L22.4627 20.4H11.5351ZM23.2334 27.2C22.7825 27.2 22.3501 27.0209 22.0313 26.7021C21.7125 26.3833 21.5334 25.9509 21.5334 25.5C21.5334 25.0491 21.7125 24.6167 22.0313 24.2979C22.3501 23.9791 22.7825 23.8 23.2334 23.8C23.6842 23.8 24.1167 23.9791 24.4355 24.2979C24.7543 24.6167 24.9334 25.0491 24.9334 25.5C24.9334 25.9509 24.7543 26.3833 24.4355 26.7021C24.1167 27.0209 23.6842 27.2 23.2334 27.2Z" fill="#162B46"/>
<path d="M27.2 4.53332H13.1217C12.6811 3.52351 11.9554 2.66421 11.0336 2.06073C10.1118 1.45724 9.03397 1.1358 7.93221 1.1358C6.83044 1.1358 5.75261 1.45724 4.83082 2.06073C3.90903 2.66421 3.18334 3.52351 2.74268 4.53332H7.93334L9.06668 6.79998L7.93334 9.06665H2.74494C3.1856 10.0765 3.9113 10.9358 4.83309 11.5392C5.75488 12.1427 6.83271 12.4642 7.93448 12.4642C9.03624 12.4642 10.1141 12.1427 11.0359 11.5392C11.9577 10.9358 12.6833 10.0765 13.124 9.06665H27.2C27.8012 9.06665 28.3777 8.82784 28.8028 8.40276C29.2279 7.97768 29.4667 7.40114 29.4667 6.79998C29.4667 6.19883 29.2279 5.62229 28.8028 5.19721C28.3777 4.77213 27.8012 4.53332 27.2 4.53332Z" fill="#162B46"/>
</svg>
