<svg width="24" height="24" viewBox="0 0 24 24" fill="none" xmlns="http://www.w3.org/2000/svg">
<path fill-rule="evenodd" clip-rule="evenodd" d="M12 0L8.18182 7.63527L0 8.18182L6 14.1818L3.81818 22.9091L12 18.5455L20.1829 22.9091L18 14.1818L24 8.18182L15.8182 7.63527L12 0ZM8.85709 14.8953L9.26182 13.2785L8.08255 12.0993L6.67309 10.6898L8.37818 10.5753L10.0615 10.4618L10.8164 8.95309L12 6.58582L13.1836 8.95309L13.9385 10.4618L15.6218 10.5753L17.328 10.6898L15.9175 12.0993L14.7382 13.2785L15.1429 14.8953L15.7156 17.1895L13.3865 15.9458L12 15.2062L10.6135 15.9458L8.28436 17.1895L8.85709 14.8953Z" fill="#20C6E0"/>
</svg>
