<svg width="42" height="42" viewBox="0 0 42 42" fill="none" xmlns="http://www.w3.org/2000/svg">
<path d="M26.25 17.472H35.6825L29.8603 10.5H26.25V17.472ZM30.597 32.403C31.3093 32.403 31.9235 32.1422 32.4433 31.6225C32.963 31.1027 33.222 30.4885 33.222 29.778C33.222 29.0657 32.963 28.4515 32.4433 27.9317C32.205 27.6827 31.9183 27.4852 31.6008 27.3513C31.2832 27.2173 30.9417 27.1498 30.597 27.153C29.8865 27.153 29.2723 27.412 28.7525 27.9317C28.5032 28.1698 28.3054 28.4565 28.1711 28.774C28.0369 29.0916 27.9691 29.4333 27.972 29.778C27.972 30.4885 28.2328 31.1027 28.7525 31.6225C29.2723 32.1422 29.8865 32.403 30.597 32.403ZM10.5 32.403C11.2665 32.403 11.8948 32.1422 12.3865 31.6225C12.8783 31.1027 13.125 30.4885 13.125 29.778C13.125 29.0657 12.88 28.4515 12.3865 27.9317C11.8948 27.412 11.2665 27.153 10.5 27.153C9.73355 27.153 9.1053 27.412 8.61355 27.9317C8.37505 28.1758 8.18705 28.4645 8.06032 28.7813C7.9336 29.0981 7.87064 29.4368 7.87505 29.778C7.87505 30.4885 8.12005 31.1027 8.61355 31.6225C9.1053 32.1422 9.73355 32.403 10.5 32.403ZM31.5 6.97198L40.278 17.472V29.778H35.847C35.847 31.199 35.3273 32.4292 34.2895 33.4687C33.25 34.5082 32.0198 35.0262 30.597 35.0262C29.176 35.0262 27.9458 34.5082 26.9063 33.4687C25.8668 32.4292 25.3488 31.199 25.3488 29.7762H15.75C15.75 31.199 15.2303 32.4292 14.1925 33.4687C13.153 34.5082 11.9228 35.0262 10.5 35.0262C9.07729 35.0262 7.84705 34.5082 6.80755 33.4687C5.7698 32.4292 5.25005 31.199 5.25005 29.7762H1.72205V22.7237H16.079L5.25005 14.189V19.2762H1.72205V8.77623H3.52805L22.722 19.3567V6.97198H31.5Z" fill="#162B46"/>
</svg>
