<svg width="24" height="24" viewBox="0 0 24 24" fill="none" xmlns="http://www.w3.org/2000/svg">
<path fill-rule="evenodd" clip-rule="evenodd" d="M8.34776 7.30435C7.19681 7.30435 6.26081 6.36835 6.26081 5.21739C6.26081 4.06643 7.19681 3.13043 8.34776 3.13043C9.49872 3.13043 10.4347 4.06643 10.4347 5.21739C10.4347 6.36835 9.49872 7.30435 8.34776 7.30435ZM8.34776 0C5.46672 0 3.13037 2.3353 3.13037 5.21739C3.13037 8.09948 5.46672 10.4348 8.34776 10.4348C11.2288 10.4348 13.5652 8.09948 13.5652 5.21739C13.5652 2.3353 11.2288 0 8.34776 0Z" fill="#F7BF05"/>
<path fill-rule="evenodd" clip-rule="evenodd" d="M0 18.7826V24H3.13043V18.7826C3.13043 17.0567 4.53496 15.6522 6.26087 15.6522H10.4348V12.5217H6.26087C2.81739 12.5217 0 15.3391 0 18.7826Z" fill="#F7BF05"/>
<mask id="mask0" mask-type="alpha" maskUnits="userSpaceOnUse" x="0" y="0" width="23" height="24">
<path d="M0 24H22.9565V0H0V24Z" fill="#F7BF05"/>
</mask>
<g mask="url(#mask0)">
<path fill-rule="evenodd" clip-rule="evenodd" d="M15.6522 17.7391H19.8261V15.6522H15.6522V17.7391ZM12.5217 12.5217V22.9565V24L15.6522 20.8696H22.9565V12.5217H12.5217Z" fill="#F7BF05"/>
</g>
</svg>
