<svg width="41" height="41" viewBox="0 0 41 41" fill="none" xmlns="http://www.w3.org/2000/svg">
<path d="M21.0857 3.51428C12.0452 3.51428 4.68567 10.8738 4.68567 19.9143C4.68567 28.9548 12.0452 36.3143 21.0857 36.3143C30.1332 36.3143 37.4857 28.9548 37.4857 19.9143C37.4857 10.8738 30.1332 3.51428 21.0857 3.51428ZM24.7359 32.1369C22.0573 32.9481 19.0112 32.8257 16.3708 31.7618C13.7381 30.7133 11.5034 28.7847 10.0721 26.3279C8.93938 24.3916 8.33473 22.1721 8.33473 19.9143V19.7919C8.36537 16.9219 9.32971 14.2202 11.113 11.9855C12.6514 10.0491 14.6794 8.61784 16.9831 7.84484C18.2995 7.39341 19.6771 7.16377 21.0931 7.16377C22.5012 7.16377 23.8789 7.39341 25.1952 7.84484C27.5219 8.63316 29.5653 10.0798 31.096 12.039C32.8716 14.2662 33.8206 16.9678 33.8436 19.8225V19.9143C33.8436 22.5701 33.0247 25.1186 31.4863 27.2846C29.8486 29.6112 27.4529 31.3255 24.7359 32.1369Z" fill="#162B46"/>
<path d="M24.3657 19.9143C24.3657 21.7184 22.8966 23.1875 21.0856 23.1875C19.2817 23.1875 17.8126 21.7184 17.8126 19.9143C17.8126 18.1104 19.2817 16.6412 21.0856 16.6412C22.8966 16.6412 24.3657 18.1104 24.3657 19.9143Z" fill="#162B46"/>
<path d="M14.5805 15.9715C14.5805 14.4879 13.8541 13.107 12.6815 12.2477C12.5128 12.4369 12.344 12.6326 12.182 12.8351C10.5898 14.8372 9.72878 17.2494 9.70142 19.8051V19.9143C9.70142 20.1379 9.70842 20.3614 9.72861 20.585C9.80202 20.5881 9.87175 20.5977 9.94749 20.5977C12.5032 20.5977 14.5805 18.5204 14.5805 15.9715Z" fill="#162B46"/>
<path d="M13.4461 24.151C12.5204 24.151 11.6302 24.43 10.8724 24.9415C10.9949 25.1791 11.117 25.4098 11.2526 25.6407C12.5306 27.8342 14.5258 29.5562 16.8765 30.4923C17.1204 30.594 17.3711 30.6818 17.6285 30.7565C17.9187 30.1451 18.0791 29.4796 18.0791 28.7839C18.0791 26.2351 16.0018 24.151 13.4461 24.151Z" fill="#162B46"/>
<path d="M23.2656 29.4127C23.2656 29.9696 23.3786 30.5146 23.5733 31.0303C23.8307 30.9692 24.0879 30.9017 24.3385 30.8272C26.7779 30.1028 28.9168 28.5653 30.3654 26.4949C30.5225 26.2762 30.673 26.0506 30.8097 25.8184C30.81 25.8179 30.8102 25.8174 30.8105 25.8169C29.9937 25.1517 28.9724 24.7797 27.8986 24.7797C25.343 24.7797 23.2656 26.857 23.2656 29.4127Z" fill="#162B46"/>
<path d="M32.4769 19.8256C32.4564 17.2767 31.6091 14.8782 30.0305 12.8897C29.8734 12.6847 29.7025 12.4934 29.5317 12.3021C28.3974 13.1562 27.7209 14.5024 27.7209 15.9715C27.7209 18.5204 29.7981 20.5977 32.354 20.5977H32.4564C32.4701 20.3722 32.4769 20.1399 32.4769 19.9143V19.8256Z" fill="#162B46"/>
<path d="M21.0927 12.4797C23.0856 12.4797 24.8058 11.2265 25.4454 9.40472C25.2199 9.3022 24.9876 9.2202 24.7552 9.13812C23.5799 8.73506 22.343 8.53003 21.0927 8.53003C19.8353 8.53003 18.5984 8.73506 17.4299 9.13812C17.1975 9.21336 16.9585 9.3022 16.7329 9.40472C17.3727 11.2265 19.0935 12.4797 21.0927 12.4797Z" fill="#162B46"/>
</svg>
